<svg xmlns="http://www.w3.org/2000/svg" width="121" height="51.867" viewBox="0 0 121 51.867"><g transform="translate(-135.382 -95.72)"><path d="M493.016,113.049H481.445V103.024h11.571c2.106,0,3.94.418,4.661,1.253a5.383,5.383,0,0,1,1.012,3.76,5.388,5.388,0,0,1-1.012,3.776c-.719.825-2.555,1.236-4.661,1.236m5.95,4.675a8.667,8.667,0,0,0,4.738-2.833c1.259-1.453,1.912-3.924,1.957-6.991-.045-3.937-1.646-6.638-3.958-8.1s-5.55-2.163-9.716-2.094H477.808a4.291,4.291,0,0,0-2.472.55A2.02,2.02,0,0,0,474.58,100v30.041c0,.526.275.79.825.79h6.043v-9.681a2.511,2.511,0,0,1,.945-2.232,5.514,5.514,0,0,1,3.21-.721h6.145a35.918,35.918,0,0,0,7.218-.478" transform="translate(-288.246 -1.682)" fill="#00ae5e" fill-rule="evenodd"/><path d="M238.093,102.829h11.021q2.679,0,3.691,1.047a4.351,4.351,0,0,1,.978,3.21,4.423,4.423,0,0,1-.978,3.227q-1.014,1.063-3.691,1.065H238.093Zm12.29,22.625h-12.29v-6.145a2.512,2.512,0,0,1,.945-2.232,5.514,5.514,0,0,1,3.21-.721h8.137q2.884,0,3.966,1.133a4.6,4.6,0,0,1,1.012,3.434,4.546,4.546,0,0,1-1.012,3.4q-1.084,1.133-3.967,1.133m6.524-12.221a6.481,6.481,0,0,0,2.935-2.952,9.759,9.759,0,0,0,.91-4.292q-.128-4.011-2.174-5.923c-2.6-2.429-6.636-2.608-9.98-2.489H234.488a4.361,4.361,0,0,0-2.506.55,1.946,1.946,0,0,0-.721,1.751v28.874a1.831,1.831,0,0,0,.566,1.477,2.958,2.958,0,0,0,1.9.481H251.1a13.589,13.589,0,0,0,8.068-2.112q3.055-2.147,3.159-7.055a10.216,10.216,0,0,0-1.322-5.269,6.632,6.632,0,0,0-4.1-3.04" transform="translate(-81.476 -1.555)" fill="#00ae5e" fill-rule="evenodd"/><path d="M732.864,101.431a11.183,11.183,0,1,1-11.183,11.182,11.183,11.183,0,0,1,11.183-11.182m0-5.711a16.894,16.894,0,1,1-16.894,16.894A16.894,16.894,0,0,1,732.864,95.72" transform="translate(-493.377)" fill="#00ae5e" fill-rule="evenodd"/><path d="M809.447,185.85c2.638,0,4.566,3.045,2.459,5.813-2.768,2.11-5.816.182-5.816-2.457a3.358,3.358,0,0,1,3.357-3.356" transform="translate(-569.96 -76.591)" fill="#008ccf" fill-rule="evenodd"/><path d="M141.976,125.1a3.359,3.359,0,1,1-3.239,3.476,3.36,3.36,0,0,1,3.239-3.476" transform="translate(-2.85 -24.963)" fill="#008ccf" fill-rule="evenodd"/><path d="M142.445,186.422c-.883,13.061,3.5,20.959,15.907,26.008,20.976,8.532,53.3,2.3,72.329-8.959v0a.857.857,0,0,1,1.036,1.365h0l-.008.006c-19.409,15.03-60.214,22.981-82.157,9.923-11.523-6.857-14.608-16.3-14.124-29.083a3.527,3.527,0,0,1,7.015.736" transform="translate(0 -73.769)" fill="#008ccf" fill-rule="evenodd"/></g></svg>